<svg xmlns="http://www.w3.org/2000/svg" width="300" height="90" viewBox="0 0 300 90" fill="none"><path d="M45.1035 7.04139C24.1612 7.02141 7.17742 23.9707 7.16743 44.8951C7.15743 59.5172 15.5643 72.8309 28.7795 79.1232L29.9691 56.2013C29.9691 56.2013 27.7299 55.4721 27.2501 55.2324C22.5118 53.145 19.0731 47.0125 19.0731 39.0422C19.0731 30.3529 25.8206 22.862 32.3482 22.7921H32.3782C38.9058 22.852 45.6533 30.3429 45.6533 39.0422C45.6533 47.0125 42.2046 53.145 37.4763 55.2324C37.4363 55.2524 34.7373 56.2312 34.7373 56.2312L36.0668 81.72C43.0443 83.4879 50.3816 83.1882 57.1991 80.8711L58.3686 58.1589C55.3398 57.4597 52.6907 55.622 50.9714 53.0351C48.9221 49.9689 52.5508 22.7921 52.5508 22.7921H54.9099V48.2909H57.2591V22.7821H59.8181V48.2809H62.1573V22.7821H64.8163V48.2809H67.1554V22.7821H68.9748C68.9748 22.7821 72.6034 49.9489 70.5542 53.0151C68.8448 55.582 66.2358 57.3998 63.2369 58.1189L63.1369 58.1589L64.1565 77.695C82.2799 67.2078 88.4576 44.0361 77.9715 25.9283C71.154 14.2326 58.6385 7.0314 45.1035 7.04139Z" fill="white"></path><path d="M24.611 35.177C24.701 34.8074 24.811 34.4479 24.9409 34.0883C24.9909 33.8586 24.8709 33.6289 24.661 33.539C24.4611 33.4191 24.1912 33.4691 24.0612 33.6688C24.0612 33.6688 23.8013 34.0783 23.4215 34.6876C22.9716 35.4466 22.6118 36.2557 22.3519 37.0946C22.002 38.2332 21.7621 39.4018 21.6221 40.5904C21.5622 41.2595 21.5422 41.9387 21.5622 42.6179C21.6121 43.347 21.7421 44.0661 21.952 44.7652C22.7017 46.8827 23.2715 48.9302 25.3408 50.9577C25.8906 51.507 26.5003 51.9964 27.1501 52.4259L27.32 52.5457C27.42 52.6156 27.53 52.6756 27.6199 52.7355C27.8498 52.8653 28.0998 52.9652 28.3497 53.0351C28.5696 53.0951 28.7995 52.9752 28.8595 52.7555C28.9095 52.5857 28.8495 52.4059 28.6995 52.306C28.4996 52.1262 28.3197 51.9265 28.1597 51.7167C27.9098 51.4171 27.6799 51.0975 27.47 50.7679C27.2901 50.4982 27.0701 50.1886 26.8602 49.899C25.8606 48.0213 25.0509 46.0537 24.4611 44.0162C24.2912 43.4868 24.1812 42.9475 24.1212 42.3981C24.0612 41.8189 24.0213 41.2396 24.0213 40.6603C23.9913 39.5916 24.0412 38.5129 24.1612 37.4442C24.2312 36.6751 24.3711 35.9161 24.571 35.177H24.611Z" fill="white"></path><path d="M45.1035 2.91341e-06C20.2326 -0.0299604 0.0400448 20.0854 5.94286e-05 44.935C-0.0399259 69.7846 20.1027 89.96 44.9736 89.9999C69.8544 90.0399 90.047 69.9145 90.077 45.0649C90.097 33.1095 85.3488 21.6435 76.8919 13.1839C68.4649 4.75419 57.0291 0.0099907 45.1035 2.91341e-06ZM45.1035 86.5341C22.082 86.5641 3.40881 67.9369 3.37882 44.935C3.34883 21.9332 21.992 3.276 45.0135 3.24603C68.0351 3.21607 86.7182 21.8433 86.7382 44.8451C86.7482 55.9016 82.3598 66.5186 74.5327 74.3391C66.7256 82.1395 56.1395 86.5341 45.1035 86.5341Z" fill="white"></path><path d="M110.37 66.4587H110.749V67.2078H100.013V66.4587H100.393C100.793 66.4587 101.173 66.2989 101.443 66.0093C102.043 65.3401 102.482 64.551 102.722 63.6821C102.812 63.2426 102.862 62.7832 102.872 62.3338V22.3626C102.862 21.9631 102.812 21.5536 102.722 21.1641C102.622 20.7147 102.442 20.2852 102.193 19.8857C102.013 19.5161 101.753 19.1765 101.443 18.9069C101.193 18.6272 100.843 18.4674 100.463 18.4574H100.083V17.6984H110.819V18.4474H110.44C110.04 18.4474 109.66 18.6072 109.39 18.8969C109.06 19.1765 108.79 19.5061 108.56 19.8757C108.35 20.2852 108.18 20.7147 108.03 21.1541C107.94 21.5436 107.89 21.9531 107.88 22.3527V39.7614L126.943 20.8645C127.233 20.5349 127.393 20.1054 127.393 19.6659C127.393 18.8669 127.093 18.4674 126.494 18.4674H126.114V17.7083H135.27V18.4574H134.891C134.111 18.4874 133.351 18.7471 132.711 19.2065C131.902 19.7558 131.142 20.3851 130.462 21.0842L114.718 36.755L131.312 61.8843C131.522 62.1939 131.742 62.4936 131.992 62.7832C132.441 63.3325 132.911 63.8619 133.421 64.3613C134.031 64.9106 134.681 65.42 135.37 65.8594C136.06 66.239 136.83 66.4487 137.62 66.4587V67.2078H135.82C134.541 67.2178 133.261 67.1479 131.992 66.9881C131.072 66.8183 130.192 66.5186 129.363 66.0892C128.613 65.6896 127.933 65.1903 127.333 64.591C126.704 63.8819 126.124 63.1328 125.604 62.3437L111.039 40.3706L107.89 43.5967V62.3537C107.89 62.7832 107.94 63.2127 108.04 63.6322C108.19 64.0816 108.37 64.5311 108.57 64.9805C108.76 65.37 109.02 65.7196 109.32 66.0292C109.6 66.2989 109.98 66.4587 110.37 66.4587ZM162.53 67.2078V63.3825L162.151 63.762C160.901 65.0105 159.422 65.9993 157.802 66.6884C155.943 67.4375 153.954 67.7971 151.944 67.7371C150.425 67.7671 148.905 67.5673 147.436 67.1379C146.306 66.8083 145.257 66.239 144.357 65.4899C143.587 64.7808 142.968 63.9118 142.558 62.943C142.208 61.9842 142.028 60.9654 142.028 59.9467C141.998 58.3386 142.468 56.7706 143.377 55.4422C144.467 54.0239 145.857 52.8454 147.426 51.9964C149.455 50.8778 151.594 49.9789 153.804 49.2997C156.353 48.4507 159.262 47.6217 162.51 46.8227C162.49 45.1747 162.081 43.5567 161.311 42.0985C160.701 40.9998 159.851 40.051 158.832 39.3219C157.942 38.6527 156.922 38.1933 155.833 37.9736C154.953 37.7438 154.044 37.624 153.134 37.594C151.954 37.574 150.785 37.7738 149.685 38.1933C148.755 38.5828 147.896 39.1122 147.136 39.7714C146.446 40.3606 145.837 41.0398 145.337 41.7989C144.877 42.4381 144.477 43.1173 144.137 43.8264H143.447V38.3431C143.847 38.2932 144.227 38.1633 144.577 37.9636C144.987 37.7338 145.417 37.5341 145.857 37.3643C146.606 37.0647 147.636 36.6352 148.935 36.0859C150.675 35.4067 152.544 35.0971 154.413 35.187C156.683 35.1071 158.952 35.4666 161.091 36.2357C162.61 36.805 163.95 37.7638 164.99 39.0123C165.939 40.1609 166.589 41.5292 166.869 42.9874C167.169 44.4656 167.329 45.9738 167.319 47.4919V62.3437C167.319 63.3325 167.549 64.3113 167.998 65.1903C168.298 65.9293 168.998 66.4287 169.798 66.4687V67.2178L162.53 67.2078ZM162.53 60.0865V49.3596L161.781 49.5094C160.581 49.8091 159.102 50.2086 157.352 50.708C155.663 51.2074 154.034 51.8566 152.474 52.6656C151.005 53.4047 149.665 54.3635 148.496 55.5121C147.436 56.5009 146.846 57.8892 146.846 59.3374C146.826 60.8955 147.556 62.3737 148.795 63.3126C150.265 64.4112 152.064 64.9705 153.904 64.8906C155.423 64.9206 156.922 64.561 158.252 63.8419C159.532 63.0629 160.701 62.104 161.701 60.9954L162.53 60.0865ZM193.279 35.187C195.678 35.127 198.057 35.5865 200.257 36.5353C202.156 37.3543 203.845 38.5828 205.215 40.1309C206.524 41.6491 207.524 43.4069 208.144 45.3046C208.793 47.1823 209.123 49.1599 209.123 51.1574C209.123 53.2249 208.793 55.2724 208.144 57.23C207.494 59.1776 206.474 60.9854 205.145 62.5535C203.805 64.1316 202.136 65.41 200.267 66.3089C198.157 67.2977 195.838 67.7771 193.509 67.7371C191.72 67.7571 189.95 67.3776 188.331 66.6085C186.921 65.9194 185.672 64.9505 184.652 63.762V67.2078H177.295V66.4587C177.665 66.4487 178.025 66.2889 178.275 66.0093C178.874 65.3401 179.314 64.551 179.554 63.6821C179.644 63.2426 179.694 62.7832 179.704 62.3338V24.0805C179.714 23.2715 179.584 22.4525 179.324 21.6835C179.074 20.9344 178.345 20.5349 177.145 20.4849V19.7359L184.652 17.4087V38.8625C185.812 37.7039 187.191 36.795 188.701 36.1658C190.15 35.5465 191.71 35.2069 193.279 35.187ZM194.029 65.1803C195.658 65.1303 197.258 64.6909 198.687 63.9018C199.957 63.1328 201.056 62.114 201.916 60.9055C202.826 59.697 203.485 58.3187 203.865 56.8505C204.315 55.3123 204.545 53.7243 204.545 52.1262C204.545 50.3484 204.295 48.5806 203.795 46.8727C203.325 45.2247 202.556 43.6766 201.546 42.2983C200.606 40.9599 199.377 39.8612 197.947 39.0722C196.438 38.2033 194.729 37.7638 192.989 37.7938C191.92 37.7938 190.86 38.0535 189.91 38.5429C188.901 39.0023 187.991 39.6315 187.211 40.4206C186.422 41.2296 185.792 42.1684 185.332 43.1972C184.882 44.2659 184.652 45.4144 184.652 46.573V55.8717C184.632 57.22 184.912 58.5484 185.482 59.7669C186.002 60.8755 186.742 61.8743 187.661 62.6933C188.551 63.4823 189.561 64.1216 190.66 64.571C191.74 64.9705 192.879 65.1703 194.029 65.1803ZM235.774 67.2078V63.3825L235.394 63.762C234.144 65.0105 232.665 65.9993 231.045 66.6884C229.186 67.4375 227.197 67.7971 225.187 67.7371C223.668 67.7671 222.149 67.5673 220.679 67.1379C219.55 66.8083 218.5 66.239 217.6 65.4899C216.831 64.7808 216.211 63.9118 215.801 62.943C215.451 61.9842 215.271 60.9654 215.271 59.9467C215.241 58.3386 215.711 56.7706 216.621 55.4422C217.71 54.0239 219.09 52.8454 220.669 51.9964C222.698 50.8778 224.838 49.9789 227.047 49.2997C229.596 48.4507 232.505 47.6217 235.754 46.8227C235.734 45.1747 235.324 43.5567 234.554 42.0985C233.944 40.9998 233.095 40.051 232.075 39.3219C231.185 38.6527 230.166 38.1933 229.076 37.9736C228.196 37.7438 227.287 37.624 226.377 37.594C225.197 37.574 224.028 37.7738 222.928 38.1933C221.999 38.5828 221.139 39.1122 220.379 39.7714C219.689 40.3606 219.08 41.0398 218.58 41.7989C218.12 42.4381 217.72 43.1173 217.38 43.8264H216.701V38.3431C217.1 38.2932 217.48 38.1633 217.83 37.9636C218.24 37.7338 218.67 37.5341 219.11 37.3643C219.859 37.0647 220.889 36.6352 222.189 36.0859C223.928 35.4067 225.797 35.0971 227.667 35.187C229.936 35.1071 232.205 35.4666 234.344 36.2357C235.864 36.805 237.203 37.7638 238.243 39.0123C239.192 40.1609 239.832 41.5292 240.122 42.9874C240.422 44.4656 240.582 45.9738 240.572 47.4919V62.3437C240.572 63.3325 240.802 64.3113 241.252 65.1903C241.551 65.9293 242.251 66.4287 243.051 66.4687V67.2178L235.774 67.2078ZM235.774 60.0865V49.3596L235.024 49.5094C233.824 49.8091 232.345 50.2086 230.595 50.708C228.906 51.2074 227.277 51.8566 225.717 52.6656C224.248 53.4047 222.908 54.3635 221.739 55.5121C220.679 56.5009 220.089 57.8892 220.089 59.3374C220.069 60.8955 220.789 62.3737 222.039 63.3126C223.508 64.4112 225.307 64.9705 227.147 64.8906C228.666 64.9206 230.166 64.561 231.495 63.8419C232.775 63.0629 233.944 62.104 234.944 60.9954L235.774 60.0865ZM266.522 35.187C268.921 35.127 271.301 35.5865 273.5 36.5353C275.399 37.3543 277.088 38.5828 278.458 40.1309C279.767 41.6491 280.767 43.4069 281.387 45.3046C282.037 47.1823 282.366 49.1599 282.366 51.1574C282.366 53.2249 282.037 55.2724 281.387 57.23C280.737 59.1776 279.717 60.9854 278.388 62.5535C277.048 64.1316 275.379 65.41 273.51 66.3089C271.4 67.2977 269.081 67.7771 266.752 67.7371C264.963 67.7571 263.194 67.3776 261.574 66.6085C260.165 65.9194 258.915 64.9505 257.895 63.762V67.2078H250.528V66.4587C250.898 66.4487 251.258 66.2889 251.508 66.0093C252.108 65.3401 252.547 64.551 252.787 63.6821C252.877 63.2426 252.927 62.7832 252.937 62.3338V24.0805C252.947 23.2715 252.817 22.4525 252.557 21.6835C252.308 20.9344 251.578 20.5349 250.378 20.4849V19.7359L257.885 17.4087V38.8625C259.045 37.7039 260.425 36.795 261.934 36.1658C263.393 35.5465 264.943 35.2069 266.522 35.187ZM267.272 65.1803C268.901 65.1303 270.501 64.6909 271.93 63.9018C273.2 63.1328 274.299 62.114 275.159 60.9055C276.069 59.697 276.729 58.3187 277.108 56.8505C277.558 55.3123 277.788 53.7243 277.788 52.1262C277.788 50.3484 277.538 48.5806 277.038 46.8727C276.569 45.2247 275.799 43.6766 274.789 42.2983C273.85 40.9599 272.62 39.8612 271.191 39.0722C269.681 38.2033 267.972 37.7638 266.232 37.7938C265.163 37.7938 264.103 38.0535 263.154 38.5429C262.144 39.0023 261.234 39.6315 260.455 40.4206C259.665 41.2296 259.035 42.1684 258.575 43.1972C258.125 44.2659 257.895 45.4144 257.895 46.573V55.8717C257.875 57.22 258.155 58.5484 258.725 59.7669C259.245 60.8755 259.985 61.8743 260.904 62.6933C261.794 63.4823 262.804 64.1216 263.903 64.571C264.973 64.9705 266.122 65.1703 267.272 65.1803ZM290.254 67.2078V66.4587C290.653 66.4587 291.033 66.2989 291.303 66.0093C291.613 65.6996 291.863 65.3501 292.053 64.9605C292.253 64.551 292.403 64.1316 292.503 63.6821C292.593 63.2426 292.643 62.7832 292.653 62.3338V41.5592C292.653 40.7502 292.533 39.9312 292.273 39.1621C292.023 38.3631 291.293 37.9336 290.094 37.8837V37.2045L297.601 34.8074V62.3338C297.611 62.7832 297.661 63.2426 297.751 63.6821C297.851 64.1216 298.001 64.551 298.201 64.9605C298.391 65.3501 298.651 65.6996 298.95 66.0093C299.22 66.2989 299.6 66.4587 300 66.4587V67.2078H290.254ZM290.633 27.6062C290.633 25.6386 292.233 24.0406 294.202 24.0406C296.171 24.0406 297.771 25.6386 297.771 27.6062C297.801 28.5451 297.411 29.444 296.721 30.0832C295.272 31.3816 293.073 31.3816 291.613 30.0832C290.953 29.434 290.593 28.5351 290.633 27.6062Z" fill="#C19977"></path></svg>