<svg xmlns="http://www.w3.org/2000/svg" viewBox="0 0 86 103"><defs><style>.cls-1{fill:#fff;}.cls-2{fill:#c7a96a;}.cls-3{fill:#fefefe;}.cls-4{fill:#c8aa6c;}</style></defs><g id="Layer_2" data-name="Layer 2"><g id="Layer_1-2" data-name="Layer 1"><circle class="cls-1" cx="43" cy="43" r="43"></circle><path class="cls-2" d="M47.54,42.65c.1-.63.38-1.13,1.08-1.12s1,.51,1.05,1.15c.34,4.12-1.5,8.85-7.07,8.63a7,7,0,0,1-7-8.46c.12-.71.33-1.34,1.16-1.32s.94.57,1,1.19c.12.82.2,1.64.38,2.44.6,2.71,1.78,3.69,4.42,3.72s4-1,4.6-3.79C47.33,44.29,47.41,43.47,47.54,42.65Z"></path><path class="cls-2" d="M49.21,26.64c-3.77-5-9.32-4.93-13.16,0a25.31,25.31,0,0,0-5.24,18.16c.35,4.21,2,7.91,6.09,9.89a2.8,2.8,0,0,1,1.82,3c0,5.06-1.34,10-1.2,15.07.21,7.86.16,15.74,0,23.6-.06,3.07.81,5.31,3.63,6.65h3c2-1.17,3.63-2.49,3.59-5.16-.07-5.46,0-10.93,0-16.39,0-.88.17-2.06-1.18-2-1.14,0-1,1.12-1,1.93q0,7.34,0,14.66A7.27,7.27,0,0,1,45.08,99a2.47,2.47,0,0,1-2.55,1.58A2.43,2.43,0,0,1,40.2,99a7.11,7.11,0,0,1-.43-2.93c0-7.7.08-15.4,0-23.1,0-2.23.74-2.78,2.86-2.81,2.31,0,3.23.68,2.92,3a9.36,9.36,0,0,0,0,2,1,1,0,0,0,1.11,1,.93.93,0,0,0,1-.92c0-3.68.47-7.5-.35-11-.6-2.58-.42-5-.7-7.55-.12-1.07.59-1.41,1.36-1.77a10.73,10.73,0,0,0,6.15-8.19A24.56,24.56,0,0,0,49.21,26.64Zm-4,26.71c-1.11.31-1.2,1.27-1.13,2.22.26,3.31-.7,6.71,1.09,9.92.76,1.36.13,2.28-1.66,2.34-3.81.12-4.08-.45-2.84-4,1.07-3.06.4-6.36.27-9.56,0-.71-.85-.89-1.51-1.08C35.57,52,33.73,49,33.31,45.3a23.23,23.23,0,0,1,4.21-16.66c3.16-4.35,7.07-4.31,10.27,0,2.67,3.63,4.29,8.77,4.32,15.61C52.06,47.45,50.87,51.77,45.26,53.35Z"></path><path class="cls-3" d="M42.6,51.31a7,7,0,0,1-7-8.46c.12-.71.33-1.34,1.16-1.32s.94.57,1,1.19c.12.82.2,1.64.38,2.44.6,2.71,1.78,3.69,4.42,3.72s4-1,4.6-3.79c.18-.8.26-1.62.39-2.44.1-.63.38-1.13,1.08-1.12s1,.51,1.05,1.15C50,46.8,48.17,51.53,42.6,51.31Z"></path><path class="cls-4" d="M42.6,51.31a7,7,0,0,1-7-8.46c.12-.71.33-1.34,1.16-1.32s.94.57,1,1.19c.12.82.2,1.64.38,2.44.6,2.71,1.78,3.69,4.42,3.72s4-1,4.6-3.79c.18-.8.26-1.62.39-2.44.1-.63.38-1.13,1.08-1.12s1,.51,1.05,1.15C50,46.8,48.17,51.53,42.6,51.31Z"></path></g></g></svg>